<?xml version="1.0" encoding="UTF-8"?><svg id="_レイヤー_2" xmlns="http://www.w3.org/2000/svg" viewBox="0 0 300 313.17"><defs><style>.cls-1,.cls-2{fill:#fff;}.cls-2{opacity:.99;}</style></defs><g id="_コンテンツ"><g><g><g><g><path class="cls-1" d="m116.47,29.14h-4c0-9.85,16.96-29.14,37.45-29.14s37.59,19.28,37.59,29.12h-4c0-7.08-14.9-25.13-33.6-25.13s-33.45,18.05-33.45,25.14Z"/><path class="cls-1" d="m150.02,119.06c-20.55,0-37.54-19.3-37.54-29.15h4c0,7.09,14.88,25.16,33.55,25.16s33.51-18.07,33.51-25.16h4c0,9.85-16.98,29.15-37.5,29.15Z"/><g><path class="cls-1" d="m114.48,29.14v60.77s0-60.77,0-60.77Z"/><rect class="cls-1" x="112.48" y="29.14" width="4" height="60.76"/></g><rect class="cls-1" x="183.53" y="29.12" width="4" height="60.78"/></g><polygon class="cls-2" points="185.64 91.9 114.53 91.88 113.47 88.19 180.35 46.74 114.02 31.08 114.93 27.19 185.95 43.96 186.55 47.6 121.54 87.89 185.64 87.9 185.64 91.9"/></g><g><path class="cls-1" d="m0,160.49c0-14.72,8.46-23.97,20.95-23.97,5.69,0,10.06,2.68,12.68,5.54l-2.04,2.14c-2.62-2.85-6.18-4.72-10.63-4.72-10.71,0-17.37,8.1-17.37,20.97s6.66,21.25,17.15,21.25c4.98,0,8.71-1.94,12.23-5.69l2.04,2c-3.72,4.13-8.15,6.65-14.54,6.65-11.99,0-20.47-9.4-20.47-24.17Z"/><path class="cls-1" d="m69.25,166.76l-14.83-29.39h3.9s10.92,21.78,13,25.59h.27c2.18-3.91,12.86-25.59,12.86-25.59h3.77l-14.83,29.39v17.06h-4.15v-17.06Z"/><path class="cls-1" d="m107.79,137.37h14.35c11.79,0,18.83,3.4,18.83,12.94s-7.06,13.54-18.83,13.54h-10.65v19.97h-3.7v-46.45Zm13.43,23.74c10.77,0,15.93-3.17,15.93-10.8s-5.19-10.2-15.93-10.2h-9.73v21h9.73Z"/><path class="cls-1" d="m160.54,137.37h3.67v20.34h26.14v-20.34h3.67v46.45h-3.67v-23.25h-26.14v23.25h-3.67v-46.45Z"/><path class="cls-1" d="m213.73,137.37h32.8v2.8h-28.92v17.58h24.35v2.8h-24.35v20.47h29.76v2.8h-33.64v-46.45Z"/><path class="cls-1" d="m266.78,137.37h14.97c10.41,0,17.25,3.38,17.25,12.27s-6.85,12.85-17.25,12.85h-11.28v21.32h-3.69v-46.45Zm14.02,22.39c9.27,0,14.42-3.27,14.42-10.11s-5.15-9.53-14.42-9.53h-10.33v19.65h10.33Zm3.64.84l15.56,23.22h-4.25l-14.82-22.28,3.51-.95Z"/></g></g><g><path class="cls-1" d="m46.8,245.13h-2.34v-21.3h2.34v21.3Z"/><path class="cls-1" d="m54.76,231.05c.04.38.08.8.1,1.26.02.46.03.84.03,1.14h.06c.43-.82,1.14-1.49,2.11-2,.97-.51,2-.77,3.09-.77,1.93,0,3.37.53,4.34,1.59s1.45,2.47,1.45,4.21v8.63h-2.21v-7.79c0-.74-.07-1.41-.2-2.02s-.35-1.12-.67-1.55c-.31-.43-.74-.77-1.27-1.01-.53-.24-1.2-.36-2-.36-.58,0-1.15.11-1.71.33-.55.22-1.05.56-1.48,1.01s-.78,1.02-1.04,1.71c-.26.69-.39,1.51-.39,2.45v7.22h-2.21v-10.98c0-.38-.01-.87-.03-1.47-.02-.6-.05-1.14-.1-1.62h2.11Z"/><path class="cls-1" d="m78.51,232.77h-4.29v8.21c0,.52.05.95.16,1.29.11.34.27.61.47.8.21.19.45.32.73.39.28.07.58.11.91.11.3,0,.62-.04.96-.12s.66-.19.96-.33l.1,1.78c-.39.14-.8.25-1.22.32-.42.07-.88.11-1.38.11-.41,0-.84-.05-1.3-.15-.45-.1-.88-.29-1.27-.57-.39-.28-.71-.66-.96-1.14-.25-.48-.37-1.11-.37-1.9v-8.78h-3.15v-1.71h3.15v-3.97h2.21v3.97h4.29v1.71Z"/><path class="cls-1" d="m95.79,237.67v.45c0,.16-.01.33-.03.51h-12.61c.02.7.17,1.36.46,1.99.28.62.67,1.16,1.17,1.62.5.46,1.08.83,1.75,1.1.67.27,1.4.41,2.18.41,1.15,0,2.14-.25,2.97-.74.83-.49,1.47-1.06,1.9-1.7l1.66,1.2c-.91,1.06-1.91,1.83-3.01,2.29-1.09.46-2.27.69-3.53.69-1.13,0-2.17-.19-3.14-.56-.96-.37-1.79-.89-2.49-1.55-.69-.66-1.24-1.44-1.64-2.35-.4-.9-.6-1.88-.6-2.95s.2-2.05.58-2.95c.39-.9.93-1.68,1.62-2.35s1.51-1.18,2.44-1.55c.93-.37,1.94-.56,3.02-.56,1.19,0,2.24.19,3.15.56.91.37,1.67.87,2.27,1.5.61.63,1.07,1.37,1.38,2.21.31.84.47,1.74.47,2.71Zm-2.24-.66c-.06-1.32-.53-2.42-1.38-3.29-.86-.87-2.07-1.31-3.66-1.31-.74,0-1.42.13-2.05.38-.63.25-1.18.59-1.66,1.02-.48.43-.86.92-1.14,1.47-.28.55-.44,1.13-.49,1.73h10.36Z"/><path class="cls-1" d="m100.5,232.68c-.02-.6-.05-1.14-.1-1.62h2.11c.04.38.08.8.1,1.26.02.46.03.84.03,1.14h.06c.43-.82,1.08-1.49,1.95-2,.87-.51,1.84-.77,2.92-.77.28,0,.54.01.76.03.23.02.46.06.7.12l-.29,1.93c-.13-.04-.35-.08-.65-.12-.3-.04-.61-.06-.91-.06-.58,0-1.15.1-1.69.3-.54.2-1.01.52-1.41.95-.4.43-.73.98-.97,1.65-.25.67-.37,1.48-.37,2.42v7.22h-2.21v-10.98c0-.38-.01-.87-.03-1.47Z"/><path class="cls-1" d="m114.93,225.64c0,.42-.16.77-.49,1.04s-.68.41-1.07.41-.75-.14-1.07-.41-.49-.62-.49-1.04.16-.77.49-1.04c.32-.27.68-.41,1.07-.41s.75.14,1.07.41c.32.27.49.62.49,1.04Zm-.45,19.49h-2.21v-14.08h2.21v14.08Z"/><path class="cls-1" d="m135.46,238.09c0,1.06-.2,2.05-.6,2.95-.4.9-.96,1.68-1.67,2.35-.71.66-1.57,1.18-2.57,1.55-1,.37-2.09.56-3.28.56s-2.25-.19-3.25-.56c-1-.37-1.85-.89-2.57-1.55-.71-.66-1.27-1.44-1.67-2.35-.4-.9-.6-1.88-.6-2.95s.2-2.05.6-2.95c.4-.9.96-1.68,1.67-2.35s1.57-1.18,2.57-1.55c1-.37,2.08-.56,3.25-.56s2.28.19,3.28.56c1,.37,1.85.89,2.57,1.55s1.27,1.44,1.67,2.35c.4.9.6,1.89.6,2.95Zm-2.34,0c0-.78-.14-1.52-.41-2.21-.27-.69-.66-1.29-1.15-1.81-.5-.51-1.1-.92-1.82-1.22-.71-.3-1.52-.45-2.4-.45s-1.68.15-2.39.45c-.7.3-1.31.71-1.8,1.22-.5.51-.88,1.11-1.15,1.81-.27.69-.41,1.43-.41,2.21s.14,1.52.41,2.21c.27.69.65,1.29,1.15,1.81.5.51,1.1.91,1.8,1.2.7.29,1.5.44,2.39.44s1.69-.15,2.4-.44c.71-.29,1.32-.69,1.82-1.2.5-.51.88-1.11,1.15-1.81.27-.69.41-1.43.41-2.21Z"/><path class="cls-1" d="m140.17,232.68c-.02-.6-.05-1.14-.1-1.62h2.11c.04.38.08.8.1,1.26.02.46.03.84.03,1.14h.06c.43-.82,1.08-1.49,1.95-2,.87-.51,1.84-.77,2.92-.77.28,0,.54.01.76.03.23.02.46.06.7.12l-.29,1.93c-.13-.04-.35-.08-.65-.12-.3-.04-.61-.06-.91-.06-.58,0-1.15.1-1.69.3-.54.2-1.01.52-1.41.95-.4.43-.73.98-.97,1.65-.25.67-.37,1.48-.37,2.42v7.22h-2.21v-10.98c0-.38-.01-.87-.03-1.47Z"/><path class="cls-1" d="m172.53,242.75c-.65.9-1.49,1.58-2.53,2.05-1.04.46-2.11.69-3.22.69-1.19,0-2.27-.19-3.23-.57-.96-.38-1.79-.9-2.47-1.56-.68-.66-1.21-1.44-1.59-2.35-.38-.9-.57-1.88-.57-2.92s.19-2.02.57-2.92c.38-.9.91-1.68,1.59-2.35.68-.66,1.51-1.18,2.47-1.56.96-.38,2.04-.57,3.23-.57,1.1,0,2.18.24,3.22.71,1.04.47,1.88,1.17,2.53,2.09h.07v-11.1h2.21v22.74h-2.21v-2.38h-.07Zm-11.27-4.66c0,.78.13,1.52.39,2.21.26.69.63,1.29,1.12,1.81.49.51,1.09.91,1.8,1.2.71.29,1.53.44,2.44.44.84,0,1.62-.15,2.34-.44.71-.29,1.33-.69,1.85-1.19.52-.5.93-1.1,1.22-1.79.29-.69.44-1.44.44-2.24s-.15-1.55-.44-2.24c-.29-.69-.7-1.29-1.22-1.81-.52-.51-1.14-.91-1.85-1.2-.71-.29-1.49-.44-2.34-.44-.91,0-1.72.15-2.44.45-.71.3-1.32.71-1.8,1.22-.49.51-.86,1.11-1.12,1.81-.26.69-.39,1.43-.39,2.21Z"/><path class="cls-1" d="m194.56,237.67v.45c0,.16-.01.33-.03.51h-12.61c.02.7.17,1.36.46,1.99.28.62.67,1.16,1.17,1.62.5.46,1.08.83,1.75,1.1.67.27,1.4.41,2.18.41,1.15,0,2.14-.25,2.97-.74.83-.49,1.47-1.06,1.9-1.7l1.66,1.2c-.91,1.06-1.91,1.83-3.01,2.29-1.09.46-2.27.69-3.53.69-1.13,0-2.17-.19-3.14-.56-.96-.37-1.79-.89-2.49-1.55-.69-.66-1.24-1.44-1.64-2.35-.4-.9-.6-1.88-.6-2.95s.2-2.05.58-2.95c.39-.9.93-1.68,1.62-2.35s1.51-1.18,2.44-1.55c.93-.37,1.94-.56,3.02-.56,1.19,0,2.24.19,3.15.56.91.37,1.67.87,2.27,1.5.61.63,1.07,1.37,1.38,2.21.31.84.47,1.74.47,2.71Zm-2.24-.66c-.06-1.32-.53-2.42-1.38-3.29-.86-.87-2.07-1.31-3.66-1.31-.74,0-1.42.13-2.05.38-.63.25-1.18.59-1.66,1.02-.48.43-.86.92-1.14,1.47-.28.55-.44,1.13-.49,1.73h10.36Z"/><path class="cls-1" d="m207.39,234.39c-.32-.58-.82-1.06-1.48-1.43-.66-.37-1.41-.56-2.26-.56-.39,0-.78.04-1.17.12-.39.08-.74.21-1.04.39-.3.18-.55.41-.73.69-.18.28-.28.61-.28.99,0,.66.29,1.17.88,1.52.58.35,1.51.65,2.76.89,1.8.34,3.12.84,3.98,1.49.86.65,1.28,1.53,1.28,2.63,0,.8-.17,1.48-.5,2.03-.34.55-.77,1-1.32,1.35-.54.35-1.15.6-1.84.75-.68.15-1.37.23-2.06.23-1.15,0-2.26-.22-3.35-.66-1.08-.44-1.97-1.13-2.66-2.08l1.75-1.2c.39.62.96,1.14,1.72,1.56.76.42,1.59.63,2.5.63.48,0,.93-.04,1.36-.12.43-.08.81-.22,1.14-.42.33-.2.58-.46.78-.77.19-.31.29-.7.29-1.16,0-.74-.38-1.3-1.15-1.67-.77-.37-1.88-.72-3.33-1.04-.45-.1-.94-.23-1.45-.38-.51-.15-.98-.37-1.41-.66-.43-.29-.79-.66-1.07-1.1-.28-.44-.42-.99-.42-1.65,0-.72.15-1.34.45-1.85.3-.51.71-.93,1.22-1.26.51-.33,1.09-.58,1.74-.74.65-.16,1.32-.24,2.01-.24,1.06,0,2.09.22,3.09.66,1,.44,1.74,1.06,2.24,1.87l-1.69,1.17Z"/><path class="cls-1" d="m216.42,225.64c0,.42-.16.77-.49,1.04s-.68.41-1.07.41-.75-.14-1.07-.41-.49-.62-.49-1.04.16-.77.49-1.04c.32-.27.68-.41,1.07-.41s.75.14,1.07.41c.32.27.49.62.49,1.04Zm-.45,19.49h-2.21v-14.08h2.21v14.08Z"/><path class="cls-1" d="m222.66,247.96c.61.72,1.43,1.33,2.49,1.84,1.05.5,2.16.75,3.33.75,1.08,0,2-.15,2.76-.44.76-.29,1.37-.69,1.84-1.19.47-.5.81-1.09,1.02-1.76.22-.67.33-1.39.33-2.15v-2.65h-.07c-.58.88-1.41,1.56-2.49,2.05-1.07.48-2.16.72-3.27.72-1.19,0-2.27-.18-3.23-.54-.96-.36-1.79-.86-2.47-1.49s-1.21-1.39-1.59-2.27c-.38-.88-.57-1.84-.57-2.86s.19-1.95.57-2.83c.38-.88.91-1.65,1.59-2.32.68-.66,1.51-1.18,2.47-1.56.96-.38,2.04-.57,3.23-.57,1.1,0,2.19.24,3.25.72,1.06.48,1.9,1.17,2.5,2.08h.07v-2.44h2.21v13.96c0,.76-.11,1.57-.34,2.44-.23.86-.65,1.65-1.27,2.38-.62.72-1.46,1.32-2.52,1.81-1.06.48-2.44.72-4.13.72-1.41,0-2.75-.25-4.03-.75-1.28-.5-2.37-1.19-3.28-2.08l1.59-1.56Zm.42-10.05c0,.74.13,1.44.39,2.11s.63,1.24,1.12,1.74c.49.5,1.09.9,1.8,1.19.71.29,1.53.44,2.44.44.84,0,1.62-.13,2.34-.39.71-.26,1.33-.63,1.85-1.11.52-.48.93-1.06,1.22-1.73.29-.67.44-1.42.44-2.24,0-.74-.15-1.44-.44-2.11-.29-.66-.7-1.24-1.22-1.74-.52-.5-1.14-.9-1.85-1.2-.71-.3-1.49-.45-2.34-.45-.91,0-1.72.15-2.44.45-.71.3-1.32.7-1.8,1.2-.49.5-.86,1.08-1.12,1.74s-.39,1.36-.39,2.11Z"/><path class="cls-1" d="m244.37,231.05c.04.38.08.8.1,1.26.02.46.03.84.03,1.14h.06c.43-.82,1.14-1.49,2.11-2,.97-.51,2-.77,3.09-.77,1.93,0,3.37.53,4.34,1.59s1.45,2.47,1.45,4.21v8.63h-2.21v-7.79c0-.74-.07-1.41-.2-2.02s-.35-1.12-.67-1.55c-.31-.43-.74-.77-1.27-1.01-.53-.24-1.2-.36-2-.36-.58,0-1.15.11-1.71.33-.55.22-1.05.56-1.48,1.01s-.78,1.02-1.04,1.71c-.26.69-.39,1.51-.39,2.45v7.22h-2.21v-10.98c0-.38-.01-.87-.03-1.47-.02-.6-.05-1.14-.1-1.62h2.11Z"/><path class="cls-1" d="m155.62,273.95l5.17,4.93h-3.25l-3.25-3.16c-.95,1.2-1.98,2.09-3.09,2.66-1.1.57-2.44.86-4,.86-.97,0-1.9-.13-2.78-.39-.88-.26-1.64-.64-2.29-1.13-.65-.49-1.16-1.1-1.54-1.84-.38-.73-.57-1.58-.57-2.54,0-.8.14-1.52.41-2.17.27-.64.64-1.22,1.12-1.73.48-.51,1.04-.97,1.69-1.37.65-.4,1.35-.75,2.11-1.05-.35-.32-.69-.67-1.02-1.05-.34-.38-.63-.78-.89-1.19-.26-.41-.47-.85-.63-1.31-.16-.46-.24-.93-.24-1.41,0-.8.15-1.51.46-2.14.3-.62.71-1.15,1.23-1.58.52-.43,1.13-.76,1.82-.98.69-.22,1.43-.33,2.21-.33s1.47.11,2.14.32c.67.21,1.26.52,1.77.93.51.41.91.91,1.2,1.5.29.59.44,1.27.44,2.03,0,.7-.15,1.33-.44,1.9-.29.56-.68,1.07-1.17,1.52-.49.45-1.04.85-1.66,1.2-.62.35-1.25.68-1.9.98l5.36,5.11,3.18-5.17h2.63l-4.22,6.59Zm-8.97-5.54c-1.39.58-2.44,1.27-3.15,2.06-.71.79-1.07,1.76-1.07,2.9,0,.6.12,1.15.37,1.65.25.5.6.93,1.04,1.28.44.35.96.63,1.54.83.58.2,1.2.3,1.85.3,1.26,0,2.3-.26,3.14-.78.83-.52,1.62-1.3,2.36-2.35l-6.08-5.9Zm4.91-6.59c0-.88-.31-1.6-.93-2.17-.62-.56-1.39-.84-2.32-.84-1.02,0-1.85.3-2.5.89-.65.59-.97,1.39-.97,2.39,0,.38.09.78.26,1.19.17.41.39.8.65,1.16s.54.69.83.99c.29.3.55.53.76.69.52-.22,1.03-.47,1.53-.74.5-.27.95-.58,1.35-.92.4-.34.73-.73.97-1.17.25-.44.37-.93.37-1.47Z"/><path class="cls-1" d="m80.94,309.2c-.39.54-.86,1.05-1.41,1.53-.55.48-1.19.9-1.92,1.26-.73.36-1.53.65-2.4.86-.88.21-1.84.32-2.88.32-1.73,0-3.34-.28-4.81-.84-1.47-.56-2.74-1.34-3.8-2.33s-1.89-2.17-2.49-3.53c-.6-1.36-.89-2.86-.89-4.48s.3-3.12.91-4.48c.61-1.36,1.45-2.54,2.52-3.53,1.07-.99,2.34-1.77,3.8-2.33,1.46-.56,3.05-.84,4.76-.84.84,0,1.67.08,2.49.24.81.16,1.58.39,2.29.68.71.29,1.36.64,1.95,1.05.58.41,1.07.88,1.46,1.4l-1.95,1.32c-.24-.34-.56-.68-.96-1.02-.4-.34-.87-.64-1.41-.9-.54-.26-1.13-.47-1.77-.63-.64-.16-1.33-.24-2.06-.24-1.49,0-2.83.25-4.01.75-1.18.5-2.18,1.18-3.01,2.03-.82.85-1.45,1.84-1.88,2.96-.43,1.12-.65,2.31-.65,3.55s.22,2.43.67,3.55c.44,1.12,1.08,2.11,1.9,2.96.82.85,1.82,1.53,3.01,2.03,1.18.5,2.51.75,3.98.75,1.32,0,2.58-.25,3.77-.75s2.19-1.3,2.99-2.41l1.82,1.08Z"/><path class="cls-1" d="m99.95,305.59c0,1.06-.2,2.05-.6,2.95-.4.9-.96,1.68-1.67,2.35-.71.66-1.57,1.18-2.57,1.55-1,.37-2.09.56-3.28.56s-2.25-.19-3.25-.56c-1-.37-1.85-.89-2.57-1.55-.71-.66-1.27-1.44-1.67-2.35-.4-.9-.6-1.88-.6-2.95s.2-2.05.6-2.95c.4-.9.96-1.68,1.67-2.35s1.57-1.18,2.57-1.55c1-.37,2.08-.56,3.25-.56s2.28.19,3.28.56c1,.37,1.85.89,2.57,1.55s1.27,1.44,1.67,2.35c.4.9.6,1.89.6,2.95Zm-2.34,0c0-.78-.14-1.52-.41-2.21-.27-.69-.66-1.29-1.15-1.81-.5-.51-1.1-.92-1.82-1.22-.71-.3-1.52-.45-2.4-.45s-1.68.15-2.39.45c-.7.3-1.31.71-1.8,1.22-.5.51-.88,1.11-1.15,1.81-.27.69-.41,1.43-.41,2.21s.14,1.52.41,2.21c.27.69.65,1.29,1.15,1.81.5.51,1.1.91,1.8,1.2.7.29,1.5.44,2.39.44s1.69-.15,2.4-.44c.71-.29,1.32-.69,1.82-1.2.5-.51.88-1.11,1.15-1.81.27-.69.41-1.43.41-2.21Z"/><path class="cls-1" d="m106.68,298.55c.04.38.08.8.1,1.26.02.46.03.84.03,1.14h.06c.43-.82,1.14-1.49,2.11-2,.97-.51,2-.77,3.09-.77,1.93,0,3.37.53,4.34,1.59s1.45,2.47,1.45,4.21v8.63h-2.21v-7.79c0-.74-.07-1.41-.2-2.02s-.35-1.12-.67-1.55c-.31-.43-.74-.77-1.27-1.01-.53-.24-1.2-.36-2-.36-.58,0-1.15.11-1.71.33-.55.22-1.05.56-1.48,1.01s-.78,1.02-1.04,1.71c-.26.69-.39,1.51-.39,2.45v7.22h-2.21v-10.98c0-.38-.01-.87-.03-1.47-.02-.6-.05-1.14-.1-1.62h2.11Z"/><path class="cls-1" d="m131.66,301.89c-.32-.58-.82-1.06-1.48-1.43-.66-.37-1.41-.56-2.26-.56-.39,0-.78.04-1.17.12-.39.08-.74.21-1.04.39-.3.18-.55.41-.73.69-.18.28-.28.61-.28.99,0,.66.29,1.17.88,1.52.58.35,1.51.65,2.76.89,1.8.34,3.12.84,3.98,1.49.86.65,1.28,1.53,1.28,2.63,0,.8-.17,1.48-.5,2.03-.34.55-.77,1-1.32,1.35-.54.35-1.15.6-1.84.75-.68.15-1.37.23-2.06.23-1.15,0-2.26-.22-3.35-.66-1.08-.44-1.97-1.13-2.66-2.08l1.75-1.2c.39.62.96,1.14,1.72,1.56.76.42,1.59.63,2.5.63.48,0,.93-.04,1.36-.12.43-.08.81-.22,1.14-.42.33-.2.58-.46.78-.77.19-.31.29-.7.29-1.16,0-.74-.38-1.3-1.15-1.67-.77-.37-1.88-.72-3.33-1.04-.45-.1-.94-.23-1.45-.38-.51-.15-.98-.37-1.41-.66-.43-.29-.79-.66-1.07-1.1-.28-.44-.42-.99-.42-1.65,0-.72.15-1.34.45-1.85.3-.51.71-.93,1.22-1.26.51-.33,1.09-.58,1.74-.74.65-.16,1.32-.24,2.01-.24,1.06,0,2.09.22,3.09.66,1,.44,1.74,1.06,2.24,1.87l-1.69,1.17Z"/><path class="cls-1" d="m144.85,300.27h-4.29v8.21c0,.52.05.95.16,1.29.11.34.27.61.47.8.21.19.45.32.73.39.28.07.58.11.91.11.3,0,.62-.04.96-.12s.66-.19.96-.33l.1,1.78c-.39.14-.8.25-1.22.32-.42.07-.88.11-1.38.11-.41,0-.84-.05-1.3-.15-.45-.1-.88-.29-1.27-.57-.39-.28-.71-.66-.96-1.14-.25-.48-.37-1.11-.37-1.9v-8.78h-3.15v-1.71h3.15v-3.97h2.21v3.97h4.29v1.71Z"/><path class="cls-1" d="m148.26,300.18c-.02-.6-.05-1.14-.1-1.62h2.11c.04.38.08.8.1,1.26.02.46.03.84.03,1.14h.06c.43-.82,1.08-1.49,1.95-2,.87-.51,1.84-.77,2.92-.77.28,0,.54.01.76.03.23.02.46.06.7.12l-.29,1.93c-.13-.04-.35-.08-.65-.12-.3-.04-.61-.06-.91-.06-.58,0-1.15.1-1.69.3-.54.2-1.01.52-1.41.95-.4.43-.73.98-.97,1.65-.25.67-.37,1.48-.37,2.42v7.22h-2.21v-10.98c0-.38-.01-.87-.03-1.47Z"/><path class="cls-1" d="m171.04,312.63c-.04-.38-.08-.8-.1-1.26-.02-.46-.03-.84-.03-1.14h-.07c-.43.82-1.14,1.49-2.11,2-.97.51-2,.77-3.09.77-1.93,0-3.37-.53-4.34-1.59-.96-1.06-1.45-2.47-1.45-4.21v-8.63h2.21v7.79c0,.74.06,1.41.19,2.02.13.6.35,1.12.67,1.55.31.43.74.77,1.27,1.01.53.24,1.2.36,2,.36.58,0,1.15-.11,1.71-.33.55-.22,1.04-.56,1.48-1.01.43-.45.78-1.02,1.04-1.71.26-.69.39-1.51.39-2.45v-7.22h2.21v10.98c0,.38.01.87.03,1.47s.05,1.14.1,1.62h-2.11Z"/><path class="cls-1" d="m189.82,301.77c-.37-.54-.9-.99-1.61-1.34-.7-.35-1.47-.53-2.29-.53-.89,0-1.69.15-2.4.44-.71.29-1.33.69-1.84,1.2-.51.51-.9,1.11-1.17,1.81-.27.69-.41,1.44-.41,2.24s.14,1.54.41,2.23c.27.68.65,1.28,1.15,1.79.5.51,1.1.91,1.82,1.2.71.29,1.52.44,2.4.44.97,0,1.8-.17,2.47-.51.67-.34,1.22-.78,1.66-1.32l1.66,1.14c-.65.74-1.45,1.33-2.39,1.78s-2.07.66-3.4.66c-1.23,0-2.35-.19-3.35-.56-1-.37-1.85-.89-2.55-1.55-.7-.66-1.25-1.44-1.64-2.35-.39-.9-.58-1.88-.58-2.95s.2-2.05.58-2.95c.39-.9.94-1.68,1.64-2.35.7-.66,1.55-1.18,2.55-1.55,1-.37,2.11-.56,3.35-.56,1.02,0,2.05.21,3.1.62,1.05.41,1.9,1.02,2.55,1.82l-1.72,1.14Z"/><path class="cls-1" d="m201.97,300.27h-4.29v8.21c0,.52.05.95.16,1.29.11.34.27.61.47.8.21.19.45.32.73.39.28.07.58.11.91.11.3,0,.62-.04.96-.12s.66-.19.96-.33l.1,1.78c-.39.14-.8.25-1.22.32-.42.07-.88.11-1.38.11-.41,0-.84-.05-1.3-.15-.45-.1-.88-.29-1.27-.57-.39-.28-.71-.66-.96-1.14-.25-.48-.37-1.11-.37-1.9v-8.78h-3.15v-1.71h3.15v-3.97h2.21v3.97h4.29v1.71Z"/><path class="cls-1" d="m208.11,293.14c0,.42-.16.77-.49,1.04s-.68.41-1.07.41-.75-.14-1.07-.41-.49-.62-.49-1.04.16-.77.49-1.04c.32-.27.68-.41,1.07-.41s.75.14,1.07.41c.32.27.49.62.49,1.04Zm-.45,19.49h-2.21v-14.08h2.21v14.08Z"/><path class="cls-1" d="m228.64,305.59c0,1.06-.2,2.05-.6,2.95-.4.9-.96,1.68-1.67,2.35-.71.66-1.57,1.18-2.57,1.55-1,.37-2.09.56-3.28.56s-2.25-.19-3.25-.56c-1-.37-1.85-.89-2.57-1.55-.71-.66-1.27-1.44-1.67-2.35-.4-.9-.6-1.88-.6-2.95s.2-2.05.6-2.95c.4-.9.96-1.68,1.67-2.35s1.57-1.18,2.57-1.55c1-.37,2.08-.56,3.25-.56s2.28.19,3.28.56c1,.37,1.85.89,2.57,1.55s1.27,1.44,1.67,2.35c.4.9.6,1.89.6,2.95Zm-2.34,0c0-.78-.14-1.52-.41-2.21-.27-.69-.66-1.29-1.15-1.81-.5-.51-1.1-.92-1.82-1.22-.71-.3-1.52-.45-2.4-.45s-1.68.15-2.39.45c-.7.3-1.31.71-1.8,1.22-.5.51-.88,1.11-1.15,1.81-.27.69-.41,1.43-.41,2.21s.14,1.52.41,2.21c.27.69.65,1.29,1.15,1.81.5.51,1.1.91,1.8,1.2.7.29,1.5.44,2.39.44s1.69-.15,2.4-.44c.71-.29,1.32-.69,1.82-1.2.5-.51.88-1.11,1.15-1.81.27-.69.41-1.43.41-2.21Z"/><path class="cls-1" d="m235.37,298.55c.04.38.08.8.1,1.26.02.46.03.84.03,1.14h.06c.43-.82,1.14-1.49,2.11-2,.97-.51,2-.77,3.09-.77,1.93,0,3.37.53,4.34,1.59s1.45,2.47,1.45,4.21v8.63h-2.21v-7.79c0-.74-.07-1.41-.2-2.02s-.35-1.12-.67-1.55c-.31-.43-.74-.77-1.27-1.01-.53-.24-1.2-.36-2-.36-.58,0-1.15.11-1.71.33-.55.22-1.05.56-1.48,1.01s-.78,1.02-1.04,1.71c-.26.69-.39,1.51-.39,2.45v7.22h-2.21v-10.98c0-.38-.01-.87-.03-1.47-.02-.6-.05-1.14-.1-1.62h2.11Z"/></g></g></g></svg>